<svg id="logo-container" width="71.487" height="106.058" viewBox="0 0 71.487 106.058">
  <g id="Agrupar_298" data-name="Agrupar 298" transform="translate(-144.277 -505.942)">
    <text id="CoDiJr" transform="translate(147 607)" fill="#333" font-size="24" font-family="Exo-Bold, Exo" font-weight="700"><tspan x="0" y="0">Co</tspan><tspan y="0" font-family="Exo-Medium, Exo" font-weight="500">Di</tspan><tspan y="0" font-family="Exo-Light, Exo" font-weight="300">Jr</tspan></text>
    <g id="Agrupar_297" data-name="Agrupar 297" transform="translate(1 2)">
      <path id="Caminho_633" data-name="Caminho 633" d="M7018.277,1661.257l36.242-16.315,35.245,16.315v7.1l-35.245-16.066-36.242,16.066Z" transform="translate(-6875 -1141)" fill="#fe6a6a"/>
      <path id="Caminho_638" data-name="Caminho 638" d="M7018.277,1661.257l36.242-16.315,35.245,16.315v7.1l-35.245-16.066-36.242,16.066Z" transform="translate(-6875 -1125)" fill="#4eccc1"/>
      <path id="Caminho_639" data-name="Caminho 639" d="M7018.277,1661.257l36.242-16.315,35.245,16.315v7.1l-35.245-16.066-36.242,16.066Z" transform="translate(-6875 -1109)" fill="#a5f192"/>
      <path id="Caminho_634" data-name="Caminho 634" d="M7019.7,1668.875l7.4,3.277,7.792-3.277-7.792-3.458Z" transform="translate(-6875 -1141)" fill="#fe6a6a"/>
      <path id="Caminho_635" data-name="Caminho 635" d="M7019.7,1668.875l7.4,3.277,7.792-3.277-7.792-3.458Z" transform="translate(-6821 -1141)" fill="#fe6a6a"/>
      <path id="Caminho_636" data-name="Caminho 636" d="M7019.7,1668.875l7.4,3.277,7.792-3.277-7.792-3.458Z" transform="translate(-6839 -1133)" fill="#fe6a6a"/>
      <path id="Caminho_641" data-name="Caminho 641" d="M7019.7,1668.875l7.4,3.277,7.792-3.277-7.792-3.458Z" transform="translate(-6821 -1125)" fill="#4eccc1"/>
      <path id="Caminho_637" data-name="Caminho 637" d="M7019.7,1668.875l7.4,3.277,7.792-3.277-7.792-3.458Z" transform="translate(-6857 -1133)" fill="#fe6a6a"/>
      <path id="Caminho_640" data-name="Caminho 640" d="M7019.7,1668.875l7.4,3.277,7.792-3.277-7.792-3.458Z" transform="translate(-6875 -1125)" fill="#4eccc1"/>
      <path id="Caminho_642" data-name="Caminho 642" d="M7038.208,1693.016l16.156,7.369,16.212-7.369-7.653-3.515-8.56,3.968-8.616-3.968Z" transform="translate(-6875 -1141)" fill="#4eccc1"/>
      <path id="Caminho_643" data-name="Caminho 643" d="M7020.152,1684.987l34.212,15.4,33.913-15.4-7.653-3.515-26.26,12-26.672-12Z" transform="translate(-6875 -1125)" fill="#a5f192"/>
    </g>
  </g>
</svg>
